# xmcd
#
# Track frame offsets: 
#        150
#        14463
#        28374
#        38800
#        53273
#        68828
#        83594
#        100155
#        112879
#        126300
#        137711
#        151903
#        165727
#        177863
#        190387
#        206368
#        220290
#        234125
#        246593
#        258526
#        273793
#        285452
#        298524
#        310536
#        323400
#
# Disc length: 4475 seconds
#
# Revision: 0
# Processed by: cddbd v1.5.2PL0 Copyright (c) Steve Scherf et al.
# Submitted via: ExactAudioCopy v1.0b2
#
DISCID=56117919
DTITLE=Essential East Coast Blues - Essential East Coast Blues
DYEAR=2012
DGENRE=Blues
TTITLE0=Bill City Red - Mississippi River
TTITLE1=Carl Martin - Farewell To You Baby
TTITLE2=Johnny Temple - Sit Right On It
TTITLE3=Barbecue Bob  - Goin' Up The Country
TTITLE4=Bumble Bee Slim  - No Woman No Nickel
TTITLE5=Luke Jordan - Church Bells Blues
TTITLE6=Pink Anderson  - My Baby Left Me This Morning
TTITLE7=Reverend Gary Davis - I'm Throwing Up My Hands
TTITLE8=William Moore - Barbershop Rag
TTITLE9=Josh White  - I Got A Head Like A Rock
TTITLE10=Corley Weaver - No No Blues
TTITLE11=Peg Leg Howell  - Rolling Mill Blues
TTITLE12=Sonny Terry and Blind Boy Fuller  - You Got To Have Your Doll
TTITLE12=ar
TTITLE13=Brownie McGhee - Unfair Blues
TTITLE14=Barbecue Bob  - Spider And The Fly
TTITLE15=Lord I Wish I Could See
TTITLE16=Johnny Temple - Loise Loise Blues
TTITLE17=Carl Martin - Old Time Blues
TTITLE18=Buddy Moss  - Insane Blues
TTITLE19=Blind Willie McTell  - Lay Some Flowers On My Grave
TTITLE20=Josh White - When I Lay Down And Die
TTITLE21=Brownie McGhee  - It Must Be Love
TTITLE22=Bumble Bee Slim  - Strange Angel
TTITLE23=Barbecue Bob  - Chocolate To The Bone
TTITLE24=Brownie McGhee  - Deep Sea Diver
EXTD=
EXTT0=
EXTT1=
EXTT2=
EXTT3=
EXTT4=
EXTT5=
EXTT6=
EXTT7=
EXTT8=
EXTT9=
EXTT10=
EXTT11=
EXTT12=
EXTT13=
EXTT14=
EXTT15=
EXTT16=
EXTT17=
EXTT18=
EXTT19=
EXTT20=
EXTT21=
EXTT22=
EXTT23=
EXTT24=
PLAYORDER=
